<svg width="21" height="24" viewBox="0 0 21 24" fill="none" xmlns="http://www.w3.org/2000/svg">
<path d="M13.2127 14.7573C13.0866 14.6789 12.9426 14.6338 12.7943 14.6264C12.6461 14.6189 12.4983 14.6493 12.365 14.7147L10.0441 15.8511C9.93255 15.4957 9.71056 15.1852 9.41037 14.9646C9.11019 14.7441 8.74748 14.6251 8.375 14.625H2.25C1.78587 14.625 1.34075 14.8094 1.01256 15.1376C0.684374 15.4658 0.5 15.9109 0.5 16.375V20.75C0.5 21.2141 0.684374 21.6592 1.01256 21.9874C1.34075 22.3156 1.78587 22.5 2.25 22.5H8.375C8.76012 22.4996 9.13434 22.3721 9.43966 22.1374C9.74498 21.9027 9.96434 21.5738 10.0638 21.2017L12.3431 22.4048C12.4769 22.4751 12.6265 22.5095 12.7775 22.5048C12.9285 22.5 13.0757 22.4563 13.2048 22.3777C13.3339 22.2992 13.4404 22.1886 13.514 22.0567C13.5877 21.9248 13.6259 21.7761 13.625 21.625V15.5C13.625 15.3514 13.5871 15.2052 13.515 15.0753C13.4429 14.9453 13.3388 14.8359 13.2127 14.7573ZM8.375 20.75H2.25V16.375H8.375V19.7656C8.375 19.7798 8.375 19.793 8.375 19.8072V20.75ZM11.875 20.1769L10.125 19.2559V17.7597L11.875 16.9033V20.1769ZM20.3691 7.00594L14.2441 0.880938C14.1627 0.799708 14.0662 0.735295 13.96 0.691381C13.8538 0.647466 13.7399 0.62491 13.625 0.625H3.125C2.66087 0.625 2.21575 0.809375 1.88756 1.13756C1.55937 1.46575 1.375 1.91087 1.375 2.375V12C1.375 12.2321 1.46719 12.4546 1.63128 12.6187C1.79538 12.7828 2.01794 12.875 2.25 12.875C2.48206 12.875 2.70462 12.7828 2.86872 12.6187C3.03281 12.4546 3.125 12.2321 3.125 12V2.375H12.75V7.625C12.75 7.85706 12.8422 8.07962 13.0063 8.24372C13.1704 8.40781 13.3929 8.5 13.625 8.5H18.875V21.625H16.25C16.0179 21.625 15.7954 21.7172 15.6313 21.8813C15.4672 22.0454 15.375 22.2679 15.375 22.5C15.375 22.7321 15.4672 22.9546 15.6313 23.1187C15.7954 23.2828 16.0179 23.375 16.25 23.375H18.875C19.3391 23.375 19.7842 23.1906 20.1124 22.8624C20.4406 22.5342 20.625 22.0891 20.625 21.625V7.625C20.6251 7.51006 20.6025 7.39623 20.5586 7.29001C20.5147 7.18379 20.4503 7.08726 20.3691 7.00594ZM14.5 3.61203L17.638 6.75H14.5V3.61203Z" fill="white"/>
</svg>
