<svg width="22" height="22" viewBox="0 0 22 22" fill="none" xmlns="http://www.w3.org/2000/svg">
<path d="M2.6875 13.75H0.9375C0.705436 13.75 0.482876 13.8422 0.318782 14.0063C0.154687 14.1704 0.0625 14.3929 0.0625 14.625V20.75C0.0625 20.9821 0.154687 21.2046 0.318782 21.3687C0.482876 21.5328 0.705436 21.625 0.9375 21.625H2.6875C3.73179 21.625 4.73331 21.2102 5.47173 20.4717C6.21016 19.7333 6.625 18.7318 6.625 17.6875C6.625 16.6432 6.21016 15.6417 5.47173 14.9033C4.73331 14.1648 3.73179 13.75 2.6875 13.75ZM2.6875 19.875H1.8125V15.5H2.6875C3.26766 15.5 3.82406 15.7305 4.2343 16.1407C4.64453 16.5509 4.875 17.1073 4.875 17.6875C4.875 18.2677 4.64453 18.8241 4.2343 19.2343C3.82406 19.6445 3.26766 19.875 2.6875 19.875ZM21.2298 19.338C21.3975 19.4984 21.4946 19.7188 21.4997 19.9508C21.5048 20.1828 21.4176 20.4073 21.2572 20.575C20.9525 20.903 20.5841 21.1653 20.1744 21.3458C19.7648 21.5264 19.3226 21.6214 18.875 21.625C16.9445 21.625 15.375 19.8586 15.375 17.6875C15.375 15.5164 16.9445 13.75 18.875 13.75C19.3226 13.7536 19.7648 13.8486 20.1744 14.0292C20.5841 14.2097 20.9525 14.472 21.2572 14.8C21.4141 14.9683 21.4984 15.1916 21.4918 15.4217C21.4853 15.6517 21.3883 15.8698 21.2221 16.0289C21.0558 16.188 20.8336 16.2752 20.6035 16.2716C20.3734 16.268 20.154 16.1739 19.9928 16.0097C19.8508 15.8534 19.6784 15.7276 19.4863 15.64C19.2941 15.5524 19.0861 15.5047 18.875 15.5C17.9103 15.5 17.125 16.4844 17.125 17.6875C17.125 18.8906 17.9103 19.875 18.875 19.875C19.0861 19.8703 19.2941 19.8226 19.4863 19.735C19.6784 19.6474 19.8508 19.5216 19.9928 19.3653C20.1532 19.1977 20.3737 19.1006 20.6057 19.0955C20.8376 19.0903 21.0622 19.1776 21.2298 19.338ZM11 13.75C9.06953 13.75 7.5 15.5164 7.5 17.6875C7.5 19.8586 9.06953 21.625 11 21.625C12.9305 21.625 14.5 19.8586 14.5 17.6875C14.5 15.5164 12.9305 13.75 11 13.75ZM11 19.875C10.0353 19.875 9.25 18.8906 9.25 17.6875C9.25 16.4844 10.0353 15.5 11 15.5C11.9647 15.5 12.75 16.4844 12.75 17.6875C12.75 18.8906 11.9647 19.875 11 19.875ZM2.25 11.125C2.48206 11.125 2.70462 11.0328 2.86872 10.8687C3.03281 10.7046 3.125 10.4821 3.125 10.25V2.375H12.75V7.625C12.75 7.85706 12.8422 8.07962 13.0063 8.24372C13.1704 8.40781 13.3929 8.5 13.625 8.5H18.875V10.25C18.875 10.4821 18.9672 10.7046 19.1313 10.8687C19.2954 11.0328 19.5179 11.125 19.75 11.125C19.9821 11.125 20.2046 11.0328 20.3687 10.8687C20.5328 10.7046 20.625 10.4821 20.625 10.25V7.625C20.6251 7.51006 20.6025 7.39623 20.5586 7.29001C20.5147 7.18379 20.4503 7.08726 20.3691 7.00594L14.2441 0.880938C14.1627 0.799708 14.0662 0.735295 13.96 0.691381C13.8538 0.647466 13.7399 0.62491 13.625 0.625H3.125C2.66087 0.625 2.21575 0.809375 1.88756 1.13756C1.55937 1.46575 1.375 1.91087 1.375 2.375V10.25C1.375 10.4821 1.46719 10.7046 1.63128 10.8687C1.79538 11.0328 2.01794 11.125 2.25 11.125ZM14.5 3.61203L17.638 6.75H14.5V3.61203Z" fill="white"/>
</svg>
