<svg width="28" height="28" viewBox="0 0 28 28" fill="none" xmlns="http://www.w3.org/2000/svg">
<path d="M24.8631 8.02482L19.9751 3.13795C19.8126 2.9754 19.6197 2.84646 19.4074 2.75849C19.195 2.67052 18.9674 2.62524 18.7376 2.62524C18.5077 2.62524 18.2801 2.67052 18.0678 2.75849C17.8554 2.84646 17.6625 2.9754 17.5 3.13795L4.01296 16.625C3.84975 16.7869 3.72036 16.9796 3.63229 17.192C3.54423 17.4044 3.49926 17.6321 3.49999 17.862V22.75C3.49999 23.2141 3.68437 23.6592 4.01256 23.9874C4.34075 24.3156 4.78586 24.5 5.24999 24.5H23.625C23.8571 24.5 24.0796 24.4078 24.2437 24.2437C24.4078 24.0796 24.5 23.857 24.5 23.625C24.5 23.3929 24.4078 23.1704 24.2437 23.0063C24.0796 22.8422 23.8571 22.75 23.625 22.75H12.6131L24.8631 10.5C25.0257 10.3375 25.1546 10.1445 25.2426 9.93219C25.3305 9.71984 25.3758 9.49225 25.3758 9.2624C25.3758 9.03255 25.3305 8.80496 25.2426 8.59261C25.1546 8.38027 25.0257 8.18733 24.8631 8.02482ZM14.875 8.23701L16.7005 10.0625L7.43749 19.3254L5.61202 17.5L14.875 8.23701ZM5.24999 22.75V19.612L8.38796 22.75H5.24999ZM10.5 22.3879L8.67562 20.5625L17.9375 11.2995L19.763 13.125L10.5 22.3879ZM21 11.8879L16.1131 6.99998L18.7381 4.37498L23.625 9.26295L21 11.8879Z" fill="white"/>
</svg>
