<svg width="55" height="51" viewBox="0 0 55 51" fill="none" xmlns="http://www.w3.org/2000/svg">
<path d="M16.7437 24.9705C16.7437 16.7527 16.7437 8.53383 16.7437 0.315963C16.7437 0.165449 16.8157 0.0901917 16.9596 0.0901917C20.0088 0.0901917 23.0571 0.076626 26.1063 0.0979435C27.0931 0.104726 28.0732 0.240383 28.9988 0.627003C29.614 0.883782 30.1528 1.26846 30.6591 1.70063C31.2628 2.21515 31.7911 2.79751 32.1971 3.48838C32.5591 4.10368 32.7587 4.77227 32.8686 5.47575C33.0081 6.37011 33.1055 7.26835 33.1217 8.17434C33.1275 8.50573 33.1456 8.83712 33.1456 9.16851C33.1466 20.2681 33.1523 31.3677 33.1389 42.4673C33.137 43.7318 32.9574 44.9915 32.3594 46.1223C31.3727 47.9895 29.891 49.2443 27.7952 49.6464C27.3491 49.7317 26.8896 49.7656 26.4339 49.784C23.2624 49.9119 20.089 49.817 16.9166 49.8499C16.7437 49.8519 16.7418 49.7714 16.7418 49.6397C16.7437 41.416 16.7437 33.1933 16.7437 24.9696V24.9705ZM22.8393 5.43796V44.4983C22.8975 44.5041 22.9482 44.5128 22.9988 44.5128C23.3522 44.5138 23.7047 44.5157 24.0582 44.5128C24.6008 44.508 25.1328 44.4585 25.6439 44.2425C26.2992 43.9653 26.7406 43.5216 26.9096 42.7987C27.0835 42.0603 27.138 41.3133 27.138 40.5604C27.1341 29.7825 27.1284 19.0046 27.1208 8.22667C27.1208 7.99605 27.1026 7.76447 27.0854 7.53482C27.0587 7.18115 27.0042 6.82844 26.7788 6.54453C26.6011 6.32166 26.3948 6.12109 26.1922 5.92051C25.8665 5.59687 25.4691 5.4399 25.0134 5.4399C24.3534 5.4399 23.6942 5.4399 23.0341 5.4399C22.973 5.4399 22.9128 5.4399 22.8393 5.4399V5.43796Z" fill="white"/>
<path d="M37.7128 21.8319C37.7128 14.6673 37.7128 7.50272 37.7128 0.338123C37.7128 0.0784374 37.6774 0.0910341 37.9554 0.0910341C39.586 0.0910341 41.2176 0.0910341 42.8483 0.0920031C42.9667 0.0920031 43.0871 0.101693 43.2046 0.116227C43.5055 0.154017 43.6985 0.36913 43.7118 0.678232C43.7157 0.773192 43.7138 0.868151 43.7138 0.963111C43.7138 14.5869 43.7118 28.2097 43.7185 41.8335C43.7185 42.4255 43.7539 43.0253 43.8446 43.6096C43.9612 44.3625 44.392 44.9226 45.1304 45.1222C45.7504 45.2898 46.3971 45.2704 47.019 45.0602C47.6733 44.8392 47.9809 44.3044 48.1147 43.6745C48.2045 43.252 48.214 42.8073 48.215 42.3722C48.2226 38.3733 48.2197 34.3753 48.2197 30.3763C48.2197 29.107 48.2188 27.8366 48.2226 26.5673C48.2226 26.4791 48.2685 26.3929 48.2799 26.3037C48.2904 26.2272 48.2914 26.1467 48.2818 26.0702C48.2675 25.9481 48.2226 25.827 48.2226 25.7059C48.2197 17.2351 48.2207 8.76335 48.2169 0.292581C48.2169 0.134638 48.2522 0.0871582 48.4137 0.0871582C50.0968 0.092972 51.7791 0.0900651 53.4623 0.0920031C53.5702 0.0920031 53.681 0.102662 53.787 0.123979C54.0631 0.179211 54.2169 0.394323 54.2398 0.743154C54.2437 0.795478 54.2408 0.848772 54.2408 0.901097C54.2408 3.71984 54.237 6.53762 54.2427 9.35636C54.2465 11.3399 54.2761 13.3243 54.2742 15.3078C54.2666 24.5353 54.2551 33.7629 54.237 42.9904C54.2351 43.8896 54.1692 44.7898 53.9303 45.6638C53.6046 46.8537 52.9502 47.8343 52.0523 48.658C51.4017 49.2548 50.6738 49.719 49.8437 50.0135C49.2123 50.2374 48.555 50.3401 47.8969 50.4157C47.2587 50.4893 46.6168 50.5494 45.9749 50.5639C45.4638 50.5756 44.947 50.5378 44.4388 50.4738C43.7758 50.3905 43.1119 50.2917 42.4604 50.1444C41.3342 49.8886 40.4047 49.2713 39.6032 48.439C38.6671 47.4661 38.0901 46.3218 37.8971 44.97C37.7796 44.1454 37.7109 43.3208 37.7109 42.4875C37.7147 35.602 37.7128 28.7165 37.7128 21.8309V21.8319Z" fill="white"/>
<path d="M6.68855 5.37002V22.9133H6.89107C8.56374 22.9133 10.2364 22.9152 11.9081 22.9104C12.0591 22.9104 12.1126 22.9404 12.1116 23.1081C12.1049 24.5412 12.1078 25.9743 12.1078 27.4074C12.1078 27.4122 12.1078 27.4181 12.1078 27.4229C12.1059 27.9713 11.8919 28.1923 11.3522 28.1932C10.267 28.1952 9.18084 28.1932 8.09566 28.1932C7.63427 28.1932 7.17192 28.1932 6.69524 28.1932V44.472H6.88247C8.85605 44.472 10.8296 44.472 12.8042 44.472C12.9424 44.472 13.0115 44.5395 13.0115 44.6745C13.0115 46.1386 13.0115 47.6037 13.0115 49.0679C13.0115 49.1367 13.0134 49.2054 13.0038 49.2733C12.9513 49.655 12.7545 49.8207 12.3265 49.8459C12.2855 49.8479 12.2434 49.8459 12.2024 49.8459C8.4109 49.8459 4.61849 49.8459 0.827032 49.8459C0.671642 49.8459 0.593946 49.7655 0.593946 49.6047C0.593946 33.1786 0.593946 16.7516 0.593946 0.325541C0.593946 0.167921 0.673234 0.0891113 0.831808 0.0891113C4.68058 0.0891113 8.52935 0.0891113 12.3781 0.0891113C12.6017 0.0891113 12.6026 0.0891114 12.6017 0.310038C12.5969 1.73734 12.5921 3.16464 12.5854 4.59193C12.5854 4.69658 12.5845 4.80414 12.5625 4.90588C12.5004 5.19657 12.3017 5.33514 11.9206 5.36614C11.869 5.37002 11.8164 5.36808 11.7648 5.36808C10.1447 5.36808 8.52362 5.36808 6.90349 5.36808C6.83662 5.36808 6.7707 5.36808 6.6876 5.36808L6.68855 5.37002Z" fill="white"/>
</svg>
