<svg width="150" height="150" viewBox="0 0 150 150" fill="none" xmlns="http://www.w3.org/2000/svg">
<g filter="url(#filter0_b_220_577)">
<circle cx="75" cy="75" r="75" fill="white" fill-opacity="0.28"/>
</g>
<path d="M67.803 142.985C66.7659 142.854 65.9155 142.606 65.2518 142.243C64.5762 141.889 64.0569 141.447 63.6937 140.917C63.3306 140.388 63.0925 139.804 62.9796 139.166C62.8666 138.528 62.8536 137.865 62.9405 137.177C63.0274 136.489 63.2108 135.846 63.4908 135.247C63.7707 134.648 64.1637 134.133 64.6696 133.703C65.165 133.271 65.78 132.956 66.5145 132.758C67.2477 132.572 68.1117 132.541 69.1065 132.667L72.4559 133.09L71.1524 143.408L67.803 142.985ZM71.0356 134.12L68.9561 133.857C68.1201 133.751 67.4175 133.781 66.8484 133.946C66.2687 134.109 65.796 134.361 65.4304 134.702C65.0635 135.053 64.7864 135.459 64.5993 135.919C64.4015 136.378 64.2719 136.851 64.2104 137.338C64.1489 137.825 64.1575 138.309 64.2363 138.792C64.3045 139.274 64.4739 139.72 64.7446 140.131C65.0139 140.552 65.4097 140.908 65.9319 141.2C66.4436 141.49 67.1174 141.688 67.9534 141.794L70.0329 142.057L71.0356 134.12Z" fill="white"/>
<path d="M51.8436 130.593L50.7278 130.151C50.9996 129.696 51.3509 129.331 51.7817 129.054C52.1987 128.783 52.6755 128.622 53.2121 128.571C53.7349 128.525 54.2839 128.616 54.8591 128.844C55.5533 129.119 56.1133 129.53 56.5391 130.077C56.961 130.634 57.2217 131.265 57.3213 131.97C57.407 132.681 57.3026 133.408 57.0081 134.152C56.7136 134.896 56.2967 135.499 55.7576 135.963C55.2086 136.422 54.5946 136.713 53.9156 136.834C53.2366 136.955 52.555 136.88 51.8707 136.609C51.1467 136.323 50.6015 135.917 50.2352 135.394C49.8551 134.876 49.6697 134.258 49.6791 133.539C49.6746 132.826 49.8758 132.028 50.2827 131.145L55.9357 133.383C56.0786 132.878 56.1135 132.398 56.0406 131.945C55.9677 131.491 55.794 131.09 55.5194 130.74C55.2409 130.401 54.8735 130.14 54.4173 129.96C53.9115 129.759 53.434 129.72 52.9848 129.84C52.5218 129.966 52.1414 130.217 51.8436 130.593ZM52.2678 135.476C52.8827 135.719 53.4691 135.745 54.027 135.553C54.5849 135.361 55.055 134.985 55.4373 134.425L51.0785 132.699C50.859 133.369 50.8759 133.95 51.1292 134.44C51.3725 134.926 51.7521 135.272 52.2678 135.476Z" fill="white"/>
<path d="M44.1579 126.39L43.2001 125.694C43.4438 125.304 43.5251 124.902 43.4442 124.487C43.3546 124.066 43.0681 123.68 42.5849 123.328C42.2915 123.115 42.0346 122.988 41.8142 122.947C41.5852 122.899 41.3848 122.911 41.2131 122.984C41.0351 123.066 40.8866 123.189 40.7674 123.353C40.6232 123.551 40.5622 123.744 40.5842 123.932C40.5914 124.122 40.653 124.318 40.7692 124.521C40.8767 124.718 41.0133 124.929 41.1789 125.155C41.3601 125.432 41.5469 125.719 41.7392 126.017C41.9166 126.317 42.0685 126.625 42.1949 126.941C42.3064 127.26 42.3528 127.577 42.3342 127.893C42.3092 128.218 42.1839 128.535 41.9582 128.846C41.7701 129.105 41.5428 129.309 41.2762 129.458C41.0034 129.616 40.7125 129.708 40.4035 129.734C40.0796 129.762 39.7537 129.73 39.4259 129.636C39.0894 129.537 38.7615 129.371 38.4422 129.139C38.0108 128.826 37.711 128.476 37.543 128.09C37.3664 127.698 37.3164 127.286 37.393 126.854C37.4548 126.424 37.6318 125.999 37.9241 125.579L38.8173 126.228C38.5955 126.66 38.5169 127.031 38.5814 127.342C38.6309 127.655 38.8283 127.936 39.1735 128.187C39.5273 128.444 39.8555 128.564 40.1582 128.547C40.4609 128.529 40.7063 128.391 40.8944 128.132C41.0324 127.942 41.0793 127.733 41.0353 127.503C40.985 127.282 40.8896 127.041 40.7491 126.781C40.5937 126.523 40.4285 126.251 40.2535 125.966C40.0784 125.68 39.912 125.401 39.7543 125.128C39.5965 124.856 39.4772 124.584 39.3963 124.315C39.3154 124.045 39.2984 123.769 39.3453 123.486C39.3773 123.207 39.5031 122.915 39.7225 122.613C39.9858 122.251 40.3072 121.99 40.6867 121.831C41.0513 121.674 41.454 121.637 41.8948 121.72C42.3269 121.796 42.776 122.004 43.242 122.342C43.6648 122.65 43.9897 122.965 44.2165 123.288C44.4284 123.613 44.5708 123.934 44.6439 124.251C44.7107 124.576 44.7281 124.879 44.6961 125.159C44.6555 125.433 44.5834 125.677 44.48 125.892C44.3766 126.107 44.2692 126.273 44.1579 126.39Z" fill="white"/>
<path d="M24.0337 119.529L25.2295 118.54L26.2902 119.822L25.0943 120.811L24.0337 119.529ZM27.4376 118.623L26.6217 117.637L32.7858 112.538L33.6017 113.524L27.4376 118.623Z" fill="white"/>
<path d="M24.9634 102.357C25.2041 102.868 25.3128 103.412 25.2895 103.989C25.2521 104.561 25.0698 105.1 24.7428 105.608C24.4112 106.106 23.9221 106.507 23.2755 106.811C22.6288 107.115 22.008 107.237 21.413 107.175C20.8084 107.117 20.2739 106.921 19.8095 106.585C19.3354 106.254 18.9735 105.824 18.7237 105.293C18.6465 105.129 18.5883 104.967 18.5491 104.809C18.4958 104.646 18.4614 104.485 18.4461 104.327L17.0632 101.388L18.3082 100.802C18.5035 101.217 18.6216 101.669 18.6625 102.156C18.6988 102.634 18.703 103.057 18.6752 103.423L18.6446 103.509C18.669 103.085 18.7567 102.707 18.9077 102.377C19.0542 102.037 19.2617 101.739 19.5303 101.483C19.7846 101.222 20.0952 101.005 20.4619 100.832C21.1086 100.528 21.7294 100.407 22.3244 100.469C22.9148 100.521 23.4422 100.715 23.9066 101.05C24.3613 101.39 24.7136 101.826 24.9634 102.357ZM28.0011 98.3277L27.6826 98.4776C27.1711 98.7183 26.8631 99.0283 26.7586 99.4075C26.6496 99.7771 26.72 100.227 26.9698 100.758L27.651 102.206C27.8009 102.524 27.9037 102.818 27.9593 103.086C28.02 103.341 28.0337 103.57 28.0002 103.775C27.9667 103.979 27.8909 104.156 27.7728 104.306C27.6547 104.456 27.4991 104.576 27.3061 104.667C26.9393 104.84 26.612 104.858 26.3242 104.722C26.0267 104.591 25.7766 104.373 25.574 104.067C25.3713 103.762 25.2237 103.448 25.1312 103.126L24.9634 102.357C25.2376 102.864 25.4814 103.244 25.6949 103.498C25.9038 103.741 26.1338 103.804 26.3847 103.686C26.5295 103.618 26.6251 103.508 26.6717 103.356C26.704 103.2 26.668 103.01 26.5635 102.788L25.855 101.283C25.6189 100.781 25.4707 100.291 25.4105 99.812C25.36 99.3289 25.4398 98.8846 25.6499 98.4792C25.8696 98.0694 26.269 97.7282 26.8481 97.4557L27.4561 97.1695L28.0011 98.3277ZM23.8776 102.867C23.7277 102.549 23.512 102.291 23.2304 102.093C22.9443 101.886 22.6107 101.766 22.2298 101.733C21.8489 101.7 21.4412 101.786 21.0069 101.99C20.5726 102.195 20.2467 102.454 20.0293 102.769C19.7976 103.078 19.6704 103.409 19.6477 103.762C19.6154 104.119 19.6741 104.456 19.824 104.775C19.9739 105.093 20.1967 105.354 20.4925 105.557C20.7786 105.764 21.1121 105.884 21.4931 105.917C21.874 105.95 22.2865 105.862 22.7305 105.653C23.1648 105.449 23.4907 105.189 23.7081 104.875C23.9256 104.56 24.0456 104.227 24.0683 103.874C24.0911 103.522 24.0275 103.186 23.8776 102.867Z" fill="white"/>
<path d="M14.5615 93.2655L14.3217 92.0081L22.18 90.5091L22.4198 91.7664L14.5615 93.2655ZM13.6488 89.3349C13.5689 88.9157 13.5598 88.5266 13.6216 88.1673C13.6833 87.808 13.8127 87.4901 14.0098 87.2137C14.2068 86.9372 14.4662 86.7031 14.7879 86.5114C15.0992 86.3217 15.4697 86.1859 15.8993 86.1039L21.1486 85.1026L21.3885 86.3599L16.4535 87.3013C15.8458 87.4172 15.417 87.6456 15.1671 87.9865C14.9172 88.3273 14.8462 88.7807 14.9541 89.3465C15.0361 89.7761 15.222 90.1532 15.512 90.478C15.802 90.8027 16.1638 91.0486 16.5975 91.2156C17.0187 91.3742 17.4857 91.4317 17.9986 91.3882L17.0901 91.5778C16.64 91.6093 16.2219 91.5805 15.8356 91.4913C15.4474 91.3916 15.1046 91.2452 14.8072 91.0522C14.4972 90.8507 14.2442 90.6058 14.048 90.3175C13.8499 90.0186 13.7168 89.6911 13.6488 89.3349Z" fill="white"/>
<path d="M21.9332 58.2854L22.304 57.1441C22.7747 57.3868 23.1618 57.7144 23.4651 58.127C23.7616 58.5262 23.9524 58.9919 24.0374 59.5242C24.1155 60.0431 24.059 60.5967 23.8678 61.1851C23.6371 61.8953 23.262 62.48 22.7427 62.9393C22.2132 63.3953 21.5999 63.6951 20.9027 63.8387C20.1987 63.9689 19.4663 63.9104 18.7054 63.6631C17.9446 63.4159 17.316 63.0378 16.8196 62.5289C16.3266 62.0098 15.9982 61.4152 15.8346 60.7452C15.671 60.0752 15.7029 59.3902 15.9303 58.6902C16.1709 57.9496 16.541 57.3801 17.0406 56.9817C17.5333 56.5698 18.1388 56.3459 18.857 56.3101C19.5684 56.2609 20.3774 56.4116 21.2841 56.7622L19.4053 62.5447C19.9189 62.6555 20.3996 62.6602 20.8474 62.559C21.2953 62.4578 21.6851 62.2592 22.0168 61.9632C22.3383 61.6639 22.5749 61.281 22.7266 60.8143C22.8947 60.2969 22.9045 59.8179 22.7561 59.3771C22.6009 58.9229 22.3266 58.559 21.9332 58.2854ZM17.0864 59.0154C16.8821 59.6443 16.8933 60.2312 17.12 60.7759C17.3468 61.3206 17.7516 61.7662 18.3344 62.1126L19.7831 57.654C19.1003 57.4771 18.5222 57.5304 18.0488 57.8139C17.5786 58.0874 17.2578 58.4878 17.0864 59.0154Z" fill="white"/>
<path d="M34.9912 41.6672L25.1426 36.6488L26.1457 35.7069L34.6674 40.0836L34.3875 40.3465L30.4612 31.6544L31.4642 30.7124L39.8927 35.1768L39.6127 35.4396L35.7797 26.6599L36.7595 25.7399L41.1728 35.8622L40.1931 36.7822L31.5573 32.0737L31.8139 31.8327L35.9709 40.7471L34.9912 41.6672Z" fill="white"/>
<path d="M50.2683 27.1756L51.3198 26.5975C51.4968 27.0966 51.5547 27.6004 51.4934 28.1088C51.4363 28.6027 51.2565 29.0728 50.9541 29.5191C50.6558 29.9508 50.2357 30.3157 49.6935 30.6137C49.0392 30.9734 48.3655 31.143 47.6725 31.1223C46.9744 31.0922 46.322 30.8909 45.7155 30.5184C45.1132 30.1313 44.6194 29.5873 44.234 28.8862C43.8486 28.1852 43.6492 27.4792 43.6357 26.7685C43.6317 26.0525 43.7993 25.3943 44.1387 24.7939C44.4781 24.1935 44.9703 23.716 45.6152 23.3614C46.2976 22.9863 46.9572 22.8245 47.5942 22.876C48.2353 22.913 48.8299 23.1643 49.378 23.6299C49.9303 24.0809 50.4169 24.7446 50.8377 25.6209L45.5098 28.55C45.8083 28.9823 46.1555 29.3149 46.5513 29.5477C46.947 29.7805 47.3671 29.9025 47.8115 29.9138C48.2508 29.9158 48.6854 29.7985 49.1154 29.5622C49.5921 29.3001 49.9273 28.9576 50.1208 28.5347C50.3186 28.0974 50.3677 27.6443 50.2683 27.1756ZM46.2354 24.3898C45.6559 24.7084 45.2623 25.1439 45.0547 25.6962C44.8471 26.2486 44.8372 26.8505 45.0249 27.5019L49.1331 25.2435C48.7565 24.6471 48.2986 24.2902 47.7593 24.1728C47.2294 24.0503 46.7214 24.1226 46.2354 24.3898Z" fill="white"/>
<path d="M62.4601 25.7164C61.8918 25.8623 61.3937 25.8525 60.9658 25.6871C60.5352 25.5113 60.1636 25.2433 59.8508 24.8831C59.5458 24.5099 59.2936 24.1066 59.0942 23.6732C58.8922 23.2295 58.7408 22.8114 58.64 22.4188C58.4967 21.8609 58.3989 21.3299 58.3466 20.8257C58.3045 20.3189 58.3339 19.8543 58.4347 19.432C58.5355 19.0097 58.7402 18.6488 59.0488 18.3493C59.365 18.0368 59.8124 17.8063 60.391 17.6578C61.0418 17.4906 61.6655 17.5177 62.2619 17.739C62.8584 17.9603 63.3795 18.3386 63.8253 18.8739C64.2711 19.4092 64.5934 20.0643 64.7924 20.8391C64.9914 21.614 65.0193 22.3447 64.8762 23.0312C64.7304 23.7073 64.4495 24.286 64.0334 24.7673C63.6147 25.2382 63.0903 25.5546 62.4601 25.7164ZM61.8477 24.6182C62.3229 24.4961 62.7109 24.2699 63.0115 23.9394C63.3094 23.5986 63.5073 23.1899 63.6052 22.7132C63.7107 22.2236 63.6932 21.705 63.5526 21.1574C63.3404 20.3309 62.9535 19.7034 62.392 19.2749C61.8278 18.8361 61.1583 18.7162 60.3834 18.9151C59.8668 19.0478 59.4647 19.2832 59.1771 19.6213C58.8972 19.9465 58.7251 20.3486 58.6609 20.8276C58.6044 21.2936 58.649 21.8108 58.7949 22.379C58.9276 22.8956 59.1322 23.3496 59.409 23.7411C59.6934 24.1196 60.0392 24.3942 60.4464 24.565C60.8537 24.7357 61.3208 24.7535 61.8477 24.6182ZM57.0004 15.3897L59.3878 24.6881C59.4356 24.8741 59.4837 25.126 59.5323 25.4439C59.5912 25.7592 59.6395 26.0331 59.6772 26.2657L58.5459 26.5562L55.7606 15.708L57.0004 15.3897Z" fill="white"/>
<path d="M88.3166 25.7164C87.6967 25.5572 87.1722 25.2408 86.7432 24.7673C86.3271 24.286 86.0462 23.7073 85.9005 23.0312C85.7574 22.3447 85.7853 21.614 85.9843 20.8391C86.1832 20.0643 86.5056 19.4092 86.9514 18.8739C87.3972 18.3386 87.9183 17.9603 88.5147 17.739C89.1112 17.5177 89.7348 17.4906 90.3857 17.6578C90.9643 17.8063 91.4065 18.0355 91.7124 18.3453C92.0313 18.6474 92.2411 19.0097 92.3419 19.432C92.4427 19.8543 92.467 20.3176 92.4146 20.8217C92.3726 21.3285 92.2799 21.8609 92.1367 22.4188C92.0359 22.8114 91.8845 23.2295 91.6825 23.6732C91.4831 24.1066 91.2257 24.5086 90.9103 24.8791C90.6079 25.242 90.2414 25.5113 89.8108 25.6871C89.3829 25.8525 88.8848 25.8623 88.3166 25.7164ZM88.929 24.6182C89.4559 24.7535 89.9229 24.7357 90.3302 24.565C90.7478 24.3969 91.0936 24.1222 91.3677 23.7411C91.6444 23.3496 91.8491 22.8956 91.9817 22.379C92.1276 21.8108 92.1671 21.2923 92.1003 20.8236C92.0464 20.3473 91.8743 19.9452 91.584 19.6173C91.3067 19.2818 90.9098 19.0478 90.3932 18.9151C89.6184 18.7162 88.9488 18.8361 88.3847 19.2749C87.8231 19.7034 87.4363 20.3309 87.224 21.1574C87.0834 21.705 87.0608 22.2223 87.156 22.7093C87.2642 23.1886 87.4673 23.5986 87.7652 23.9394C88.0761 24.2725 88.464 24.4988 88.929 24.6182ZM93.7763 15.3897L95.0161 15.708L92.2307 26.5562L91.0994 26.2657C91.1371 26.0331 91.1803 25.7578 91.2288 25.4399C91.2878 25.1247 91.3411 24.8741 91.3888 24.6881L93.7763 15.3897Z" fill="white"/>
<path d="M105.274 29.7957L106.326 30.3738C105.999 30.7908 105.605 31.1095 105.143 31.3302C104.695 31.5466 104.202 31.6467 103.663 31.6305C103.139 31.61 102.606 31.4508 102.064 31.1527C101.409 30.793 100.905 30.3151 100.551 29.7188C100.203 29.1132 100.023 28.4546 100.013 27.7429C100.017 27.027 100.211 26.3185 100.597 25.6174C100.982 24.9164 101.471 24.3698 102.064 23.9776C102.667 23.5905 103.312 23.3794 104.001 23.3442C104.69 23.3091 105.357 23.4687 106.002 23.8233C106.684 24.1984 107.174 24.6687 107.472 25.2341C107.784 25.7953 107.891 26.432 107.791 27.1442C107.706 27.8522 107.407 28.6186 106.892 29.4435L101.564 26.5145C101.359 26.9982 101.264 27.4695 101.28 27.9284C101.295 28.3873 101.417 28.8074 101.646 29.1887C101.88 29.5606 102.212 29.8648 102.642 30.1012C103.118 30.3632 103.587 30.4627 104.048 30.3995C104.523 30.3321 104.932 30.1309 105.274 29.7957ZM105.466 24.898C104.886 24.5794 104.307 24.4804 103.73 24.6011C103.152 24.7218 102.639 25.0359 102.189 25.5435L106.297 27.802C106.599 27.1645 106.655 26.5867 106.465 26.0684C106.285 25.5554 105.952 25.1652 105.466 24.898Z" fill="white"/>
<path d="M113.805 38.2927L113.525 38.0299L120.03 34.6787L121.045 35.6316L113.352 39.3823L112.478 38.5608L115.75 30.659L116.764 31.6119L113.805 38.2927Z" fill="white"/>
<path d="M125.048 50.2196L125.691 51.2328C125.204 51.4408 124.704 51.5302 124.193 51.5009C123.697 51.4749 123.216 51.325 122.752 51.0512C122.302 50.7807 121.912 50.3842 121.58 49.8619C121.18 49.2314 120.969 48.5697 120.946 47.8768C120.932 47.1781 121.092 46.5144 121.426 45.8857C121.774 45.2603 122.286 44.7333 122.962 44.3046C123.637 43.8759 124.329 43.6326 125.038 43.5746C125.752 43.5256 126.419 43.6516 127.04 43.9526C127.66 44.2536 128.168 44.7148 128.562 45.3362C128.979 45.9937 129.182 46.6419 129.171 47.2808C129.174 47.923 128.961 48.5322 128.53 49.1084C128.115 49.6879 127.483 50.2152 126.635 50.6903L123.377 45.5568C122.964 45.8819 122.654 46.2492 122.447 46.6589C122.239 47.0685 122.144 47.4954 122.161 47.9396C122.186 48.3782 122.33 48.8046 122.593 49.2189C122.885 49.6782 123.248 49.9911 123.682 50.1578C124.131 50.3277 124.586 50.3483 125.048 50.2196ZM127.575 46.0197C127.22 45.4614 126.761 45.0959 126.197 44.9234C125.632 44.7509 125.031 44.7788 124.393 45.0071L126.905 48.9653C127.476 48.552 127.804 48.0726 127.887 47.5271C127.976 46.9905 127.872 46.4881 127.575 46.0197Z" fill="white"/>
<path d="M137.778 57.8768L138.174 59.0942L127.522 62.5552L127.126 61.3378L137.778 57.8768Z" fill="white"/>
<path d="M129.654 75.4167C129.611 74.7354 129.736 74.0862 130.029 73.4693C130.321 72.8524 130.765 72.3382 131.359 71.9268C131.964 71.5253 132.692 71.2978 133.544 71.2442C134.396 71.1906 135.142 71.3254 135.782 71.6485C136.433 71.9816 136.948 72.4355 137.326 73.0102C137.705 73.5849 137.915 74.2129 137.958 74.8943C138.001 75.5756 137.87 76.2197 137.566 76.8267C137.263 77.4442 136.809 77.9538 136.204 78.3552C135.609 78.756 134.886 78.9832 134.034 79.0368C133.183 79.0904 132.431 78.956 131.781 78.6335C131.14 78.3104 130.636 77.8612 130.269 77.2858C129.902 76.721 129.697 76.098 129.654 75.4167ZM130.852 75.3413C130.88 75.7884 131.018 76.2019 131.267 76.5817C131.515 76.9616 131.865 77.2602 132.317 77.4776C132.78 77.7049 133.326 77.7988 133.954 77.7593C134.582 77.7198 135.106 77.5586 135.527 77.2756C135.958 77.0026 136.279 76.6618 136.488 76.2532C136.698 75.8446 136.788 75.4167 136.76 74.9696C136.732 74.5225 136.588 74.104 136.329 73.7142C136.08 73.3344 135.724 73.0308 135.261 72.8035C134.809 72.5754 134.263 72.4815 133.624 72.5217C132.996 72.5612 132.466 72.7175 132.035 72.9904C131.614 73.2734 131.305 73.6242 131.107 74.0428C130.909 74.4614 130.824 74.8942 130.852 75.3413Z" fill="white"/>
<path d="M128.632 89.4666C128.742 88.8903 128.963 88.4438 129.295 88.127C129.638 87.8123 130.038 87.5901 130.497 87.4605C130.965 87.3434 131.437 87.2869 131.914 87.291C132.402 87.2971 132.845 87.3381 133.243 87.4141C133.808 87.522 134.331 87.6596 134.809 87.8269C135.286 88.0047 135.693 88.2291 136.033 88.5001C136.372 88.7711 136.611 89.11 136.751 89.5167C136.899 89.9359 136.917 90.4388 136.805 91.0256C136.685 91.6543 136.398 92.1913 135.944 92.6368C135.49 93.0822 134.925 93.3979 134.248 93.5838C133.57 93.7802 132.838 93.8035 132.052 93.6536C131.267 93.5037 130.595 93.2126 130.036 92.7803C129.489 92.3501 129.087 91.839 128.83 91.2472C128.582 90.6678 128.516 90.0743 128.632 89.4666ZM129.887 89.3801C129.795 89.8621 129.834 90.3094 130.005 90.7221C130.185 91.1473 130.47 91.5056 130.859 91.7971C131.259 92.0906 131.737 92.2903 132.292 92.3963C133.13 92.5562 133.863 92.4733 134.49 92.1476C135.127 91.824 135.521 91.2692 135.671 90.4834C135.758 90.0224 135.711 89.5898 135.527 89.1856C135.354 88.7833 135.067 88.4407 134.665 88.1577C134.273 87.8767 133.789 87.6812 133.213 87.5713C132.689 87.4713 132.191 87.4632 131.719 87.5469C131.255 87.6431 130.859 87.8391 130.532 88.1349C130.204 88.4307 129.989 88.8457 129.887 89.3801ZM137.397 87.0665L137.167 88.2766L135.507 88.009L126.156 86.2251L126.396 84.9678L137.397 87.0665Z" fill="white"/>
<path d="M125.886 105.282L125.375 106.367C124.939 106.068 124.596 105.694 124.347 105.247C124.103 104.814 123.972 104.328 123.954 103.789C123.942 103.264 124.067 102.722 124.33 102.162C124.648 101.487 125.094 100.954 125.667 100.563C126.249 100.177 126.895 99.9562 127.605 99.9012C128.32 99.8603 129.039 100.01 129.763 100.351C130.487 100.691 131.063 101.145 131.492 101.712C131.916 102.289 132.167 102.92 132.245 103.606C132.324 104.291 132.206 104.966 131.893 105.632C131.561 106.337 131.123 106.855 130.577 107.188C130.037 107.535 129.408 107.681 128.691 107.627C127.979 107.587 127.195 107.336 126.34 106.874L128.928 101.373C128.433 101.198 127.956 101.133 127.499 101.178C127.042 101.222 126.631 101.37 126.264 101.622C125.908 101.879 125.625 102.229 125.416 102.673C125.185 103.165 125.115 103.639 125.207 104.095C125.304 104.565 125.53 104.961 125.886 105.282ZM130.786 105.165C131.068 104.566 131.131 103.983 130.974 103.414C130.817 102.845 130.471 102.352 129.937 101.936L127.94 106.177C128.596 106.439 129.176 106.458 129.681 106.236C130.182 106.024 130.55 105.667 130.786 105.165Z" fill="white"/>
<path d="M124.387 117.357L123.571 118.343L117.407 113.243L118.223 112.257L124.387 117.357ZM121.014 119.55C121.361 119.131 121.547 118.689 121.571 118.225C121.597 117.776 121.526 117.343 121.357 116.927C121.191 116.526 120.988 116.185 120.749 115.905L121.475 116.484C121.549 116.545 121.658 116.664 121.804 116.839C121.949 117.015 122.091 117.236 122.23 117.504C122.377 117.778 122.488 118.07 122.563 118.381C122.639 118.707 122.645 119.044 122.579 119.391C122.513 119.738 122.341 120.08 122.062 120.417L121.014 119.55Z" fill="white"/>
<path d="M68.56 71.2977L64.1172 75L68.56 78.7024C68.6508 78.7751 68.7262 78.8652 68.7818 78.9674C68.8374 79.0696 68.8721 79.1819 68.8838 79.2976C68.8954 79.4134 68.8839 79.5303 68.8498 79.6416C68.8158 79.7528 68.7599 79.8562 68.6854 79.9456C68.6109 80.035 68.5194 80.1086 68.4161 80.1622C68.3128 80.2157 68.1999 80.2482 68.0839 80.2576C67.9679 80.267 67.8513 80.2532 67.7407 80.217C67.6301 80.1807 67.5279 80.1228 67.44 80.0466L62.19 75.6716C62.0915 75.5895 62.0122 75.4867 61.9578 75.3706C61.9035 75.2544 61.8753 75.1277 61.8753 74.9995C61.8753 74.8712 61.9035 74.7446 61.9578 74.6284C62.0122 74.5123 62.0915 74.4095 62.19 74.3274L67.44 69.9524C67.6184 69.8039 67.8485 69.7323 68.0797 69.7534C68.3108 69.7745 68.5241 69.8866 68.6727 70.065C68.8212 70.2434 68.8927 70.4735 68.8716 70.7047C68.8505 70.9359 68.7384 71.1492 68.56 71.2977ZM87.81 74.3274L82.56 69.9524C82.4717 69.8788 82.3697 69.8234 82.26 69.7893C82.1502 69.7551 82.0348 69.7429 81.9203 69.7534C81.8059 69.7639 81.6946 69.7968 81.5928 69.8502C81.4911 69.9037 81.4009 69.9767 81.3273 70.065C81.1788 70.2434 81.1073 70.4735 81.1284 70.7047C81.1495 70.9359 81.2616 71.1492 81.44 71.2977L85.8828 75L81.44 78.7024C81.3492 78.7751 81.2737 78.8652 81.2182 78.9674C81.1626 79.0696 81.1279 79.1819 81.1162 79.2976C81.1046 79.4134 81.1161 79.5303 81.1501 79.6416C81.1842 79.7528 81.2401 79.8562 81.3146 79.9456C81.3891 80.035 81.4806 80.1086 81.5839 80.1622C81.6872 80.2157 81.8001 80.2482 81.9161 80.2576C82.032 80.267 82.1487 80.2532 82.2593 80.217C82.3699 80.1807 82.4721 80.1228 82.56 80.0466L87.81 75.6716C87.9085 75.5895 87.9878 75.4867 88.0422 75.3706C88.0965 75.2544 88.1247 75.1277 88.1247 74.9995C88.1247 74.8712 88.0965 74.7446 88.0422 74.6284C87.9878 74.5123 87.9085 74.4095 87.81 74.3274ZM78.7986 64.5525C78.6906 64.5133 78.5759 64.4958 78.4611 64.5009C78.3463 64.506 78.2336 64.5336 78.1295 64.5823C78.0254 64.6309 77.9319 64.6996 77.8544 64.7844C77.7768 64.8692 77.7167 64.9684 77.6775 65.0764L70.6775 84.3264C70.6381 84.4345 70.6204 84.5493 70.6255 84.6642C70.6305 84.7791 70.6581 84.8919 70.7068 84.9962C70.7554 85.1004 70.8242 85.194 70.909 85.2716C70.9939 85.3493 71.0933 85.4094 71.2014 85.4486C71.2973 85.4827 71.3983 85.5001 71.5 85.5C71.6797 85.5 71.855 85.4447 72.0022 85.3416C72.1493 85.2385 72.2612 85.0925 72.3225 84.9236L79.3225 65.6736C79.3617 65.5656 79.3793 65.4509 79.3742 65.3361C79.3691 65.2213 79.3414 65.1087 79.2927 65.0046C79.2441 64.9005 79.1754 64.807 79.0906 64.7294C79.0058 64.6518 78.9066 64.5917 78.7986 64.5525Z" fill="white"/>
<path d="M107.593 124.358C99.0044 131.512 93.6691 132.842 87 134.504" stroke="white" stroke-width="0.5" stroke-linecap="round"/>
<defs>
<filter id="filter0_b_220_577" x="-20" y="-20" width="190" height="190" filterUnits="userSpaceOnUse" color-interpolation-filters="sRGB">
<feFlood flood-opacity="0" result="BackgroundImageFix"/>
<feGaussianBlur in="BackgroundImageFix" stdDeviation="10"/>
<feComposite in2="SourceAlpha" operator="in" result="effect1_backgroundBlur_220_577"/>
<feBlend mode="normal" in="SourceGraphic" in2="effect1_backgroundBlur_220_577" result="shape"/>
</filter>
</defs>
</svg>
